<svg xmlns="http://www.w3.org/2000/svg" viewBox="0 0 512 512"><defs><style>.c{fill:#fff;}</style></defs><path class="c" d="M316.34,256l60.33-60.34a20.49,20.49,0,0,0,6.34-15,20.89,20.89,0,0,0-6.34-15.33l-30-30A20.88,20.88,0,0,0,331.34,129a20.48,20.48,0,0,0-15,6.33L256,195.66l-60.33-60.33a20.5,20.5,0,0,0-15-6.33,20.88,20.88,0,0,0-15.33,6.33l-30,30A20.88,20.88,0,0,0,129,180.66a20.48,20.48,0,0,0,6.33,15L195.67,256l-60.34,60.33a20.52,20.52,0,0,0-6.33,15,20.87,20.87,0,0,0,6.33,15.32l30,30A20.88,20.88,0,0,0,180.67,383a20.5,20.5,0,0,0,15-6.33L256,316.33l60.34,60.34a20.48,20.48,0,0,0,15,6.33,20.88,20.88,0,0,0,15.33-6.33l30-30A20.88,20.88,0,0,0,383,331.34a20.53,20.53,0,0,0-6.34-15Z"/><path d="M384.51,34.33Q325.66,0,256,0T127.51,34.33A254.77,254.77,0,0,0,34.34,127.5Q0,186.33,0,256T34.33,384.5a255.07,255.07,0,0,0,93.17,93.17Q186.34,512,256,512t128.51-34.33a254.89,254.89,0,0,0,93.16-93.17Q512,325.67,512,256T477.68,127.5A255.07,255.07,0,0,0,384.51,34.33Zm-7.84,312.33-30,30A20.88,20.88,0,0,1,331.34,383a20.48,20.48,0,0,1-15-6.33L256,316.33l-60.33,60.34a20.5,20.5,0,0,1-15,6.33,20.88,20.88,0,0,1-15.33-6.33l-30-30A20.87,20.87,0,0,1,129,331.34a20.52,20.52,0,0,1,6.33-15L195.67,256l-60.34-60.34a20.48,20.48,0,0,1-6.33-15,20.88,20.88,0,0,1,6.33-15.33l30-30A20.88,20.88,0,0,1,180.67,129a20.5,20.5,0,0,1,15,6.33L256,195.66l60.34-60.33a20.48,20.48,0,0,1,15-6.33,20.88,20.88,0,0,1,15.33,6.33l30,30A20.89,20.89,0,0,1,383,180.66a20.49,20.49,0,0,1-6.34,15L316.34,256l60.33,60.33a20.53,20.53,0,0,1,6.34,15A20.88,20.88,0,0,1,376.67,346.66Z"/></svg>
